<?xml version="1.0" encoding="UTF-8"?><svg id="_레이어_2" xmlns="http://www.w3.org/2000/svg" viewBox="0 0 1374.45 1053.22"><defs><style>.cls-1{fill:none;stroke:#040000;stroke-miterlimit:10;stroke-width:4px;}.cls-2{fill:#040000;stroke-width:0px;}.cls-3{fill:#000;font-family:SourceSansRoman-Black, 'Source Sans Variable';font-size:65.84px;font-variation-settings:'wght' 900;font-weight:800;}</style></defs><g id="_레이어_1-2"><circle class="cls-2" cx="542.17" cy="599.83" r="20"/><circle class="cls-1" cx="522.8" cy="677.92" r="43"/><text class="cls-3" transform="translate(505.19 698.77)"><tspan x="0" y="0">1</tspan></text><circle class="cls-2" cx="681.17" cy="649.83" r="20"/><circle class="cls-1" cx="660.28" cy="731.79" r="43"/><text class="cls-3" transform="translate(643.68 752.63)"><tspan x="0" y="0">2</tspan></text><circle class="cls-2" cx="830.17" cy="707.83" r="20"/><circle class="cls-1" cx="787.78" cy="783.79" r="43"/><text class="cls-3" transform="translate(771.18 804.63)"><tspan x="0" y="0">3</tspan></text><circle class="cls-2" cx="978.17" cy="782.83" r="20"/><circle class="cls-1" cx="1018.15" cy="853.91" r="43"/><text class="cls-3" transform="translate(1000.55 874.75)"><tspan x="0" y="0">4</tspan></text><circle class="cls-2" cx="859.17" cy="852.83" r="20"/><circle class="cls-1" cx="897.42" cy="921.22" r="43"/><text class="cls-3" transform="translate(879.81 942.06)"><tspan x="0" y="0">5</tspan></text><circle class="cls-2" cx="739.17" cy="910.83" r="20"/><circle class="cls-1" cx="757.75" cy="999.22" r="43"/><text class="cls-3" transform="translate(740.15 1020.06)"><tspan x="0" y="0">6</tspan></text><ellipse class="cls-2" cx="612.17" cy="934.83" rx="19" ry="20"/><circle class="cls-1" cx="581.5" cy="1008.22" r="43"/><text class="cls-3" transform="translate(563.9 1029.06)"><tspan x="0" y="0">7</tspan></text><circle class="cls-2" cx="497.17" cy="881.83" r="20"/><circle class="cls-1" cx="452" cy="956.22" r="43"/><text class="cls-3" transform="translate(434.4 977.06)"><tspan x="0" y="0">8</tspan></text><circle class="cls-2" cx="369.17" cy="794.83" r="20"/><circle class="cls-1" cx="327.5" cy="890.22" r="43"/><text class="cls-3" transform="translate(310.9 911.06)"><tspan x="0" y="0">9</tspan></text><circle class="cls-2" cx="250.17" cy="744.83" r="20"/><circle class="cls-1" cx="208.3" cy="833.72" r="43"/><text class="cls-3" transform="translate(173.09 854.56)"><tspan x="0" y="0">10</tspan></text><circle class="cls-2" cx="139.17" cy="718.83" r="20"/><circle class="cls-1" cx="45" cy="727.72" r="43"/><text class="cls-3" transform="translate(9.79 748.56)"><tspan x="0" y="0">11</tspan></text><circle class="cls-2" cx="242.17" cy="632.83" r="20"/><circle class="cls-1" cx="148.08" cy="572.22" r="43"/><text class="cls-3" transform="translate(112.88 593.06)"><tspan x="0" y="0">12</tspan></text><circle class="cls-2" cx="340.17" cy="572.83" r="20"/><circle class="cls-1" cx="276.08" cy="508.22" r="43"/><text class="cls-3" transform="translate(240.88 529.06)"><tspan x="0" y="0">13</tspan></text><circle class="cls-2" cx="431.17" cy="434.83" r="20"/><circle class="cls-1" cx="340.76" cy="358.67" r="43"/><text class="cls-3" transform="translate(305.55 379.51)"><tspan x="0" y="0">14</tspan></text><circle class="cls-2" cx="487.17" cy="302.83" r="20"/><circle class="cls-1" cx="411.76" cy="227.67" r="43"/><text class="cls-3" transform="translate(376.55 248.51)"><tspan x="0" y="0">15</tspan></text><circle class="cls-2" cx="594.17" cy="182.83" r="20"/><circle class="cls-1" cx="532.44" cy="109.5" r="43"/><text class="cls-3" transform="translate(497.23 129.34)"><tspan x="0" y="0">16</tspan></text><circle class="cls-2" cx="784.17" cy="130.83" r="20"/><circle class="cls-1" cx="788.44" cy="45" r="43"/><text class="cls-3" transform="translate(753.23 65.84)"><tspan x="0" y="0">17</tspan></text><circle class="cls-2" cx="978.17" cy="198.83" r="20"/><circle class="cls-1" cx="1024.95" cy="131.15" r="43"/><text class="cls-3" transform="translate(989.74 151.99)"><tspan x="0" y="0">18</tspan></text><circle class="cls-2" cx="1123.17" cy="287.83" r="20"/><circle class="cls-1" cx="1182.45" cy="228.15" r="43"/><text class="cls-3" transform="translate(1147.24 248.99)"><tspan x="0" y="0">19</tspan></text><circle class="cls-2" cx="1210.17" cy="443.83" r="20"/><circle class="cls-1" cx="1297.45" cy="406.15" r="43"/><text class="cls-3" transform="translate(1263.24 426.99)"><tspan x="0" y="0">20</tspan></text><circle class="cls-2" cx="1250.17" cy="592.83" r="20"/><circle class="cls-1" cx="1329.45" cy="609.65" r="43"/><text class="cls-3" transform="translate(1295.24 630.49)"><tspan x="0" y="0">21</tspan></text><circle class="cls-2" cx="1250.17" cy="782.83" r="20"/><circle class="cls-1" cx="1298.14" cy="853.15" r="43"/><text class="cls-3" transform="translate(1263.93 873.99)"><tspan x="0" y="0">22</tspan></text><circle class="cls-2" cx="1103.17" cy="753.83" r="20"/><circle class="cls-1" cx="1147.14" cy="815.15" r="43"/><text class="cls-3" transform="translate(1111.93 835.99)"><tspan x="0" y="0">23</tspan></text><circle class="cls-2" cx="978.17" cy="695.83" r="20"/><circle class="cls-1" cx="897.64" cy="640.65" r="43"/><text class="cls-3" transform="translate(862.43 661.49)"><tspan x="0" y="0">24</tspan></text><circle class="cls-2" cx="1036.17" cy="405.83" r="20"/><circle class="cls-1" cx="943.14" cy="408.15" r="43"/><text class="cls-3" transform="translate(907.93 428.99)"><tspan x="0" y="0">26</tspan></text><circle class="cls-2" cx="1007.17" cy="287.83" r="20"/><circle class="cls-1" cx="912.64" cy="294.65" r="43"/><text class="cls-3" transform="translate(877.43 315.49)"><tspan x="0" y="0">27</tspan></text><circle class="cls-1" cx="954.64" cy="522.65" r="43"/><text class="cls-3" transform="translate(919.43 543.49)"><tspan x="0" y="0">25</tspan></text><circle class="cls-2" cx="1026.17" cy="569.83" r="20"/></g></svg>